<?xml version="1.0" encoding="utf-8"?>
<!-- Generator: Adobe Illustrator 26.0.1, SVG Export Plug-In . SVG Version: 6.00 Build 0)  -->
<svg version="1.1" xmlns="http://www.w3.org/2000/svg" xmlns:xlink="http://www.w3.org/1999/xlink" x="0px" y="0px"
	 viewBox="0 0 1920 1080" style="enable-background:new 0 0 1920 1080;" xml:space="preserve">
<style type="text/css">
	.st0{opacity:0.22;fill:none;stroke:#000000;stroke-width:2;stroke-miterlimit:10;}
	.st1{fill:#DAECFE;}
	.st2{fill:#394363;}
	.st3{fill:none;stroke:#000000;stroke-width:5;stroke-linecap:round;stroke-miterlimit:10;}
	.st4{fill:#754C24;}
	.st5{fill:#A67C52;}
	.st6{fill:#A3404A;}
	.st7{fill:#42210B;}
	.st8{fill:none;stroke:#A3404A;stroke-width:4;stroke-miterlimit:10;}
	.st9{opacity:0.17;fill:#44555F;}
	.st10{fill:#322100;}
	.st11{fill:#44555F;}
	.st12{fill:#617689;}
	.st13{fill:#F84763;}
	.st14{fill:none;stroke:#44555F;stroke-width:2;stroke-miterlimit:10;}
	.st15{fill:#728C99;}
	.st16{fill:#633B00;}
	.st17{fill:url(#SVGID_1_);}
	.st18{fill:#277774;}
	.st19{fill:none;stroke:#545B43;stroke-width:2;stroke-miterlimit:10;}
	.st20{fill:none;stroke:#000000;stroke-miterlimit:10;}
	.st21{fill:#BA6000;}
	.st22{fill:#FCFCFC;}
	.st23{fill:none;stroke:#D33D1F;stroke-width:3;stroke-linecap:round;stroke-miterlimit:10;}
	.st24{fill:none;stroke:#D8B507;stroke-width:3;stroke-linecap:round;stroke-miterlimit:10;}
	.st25{fill:none;stroke:#1D54EA;stroke-width:3;stroke-linecap:round;stroke-miterlimit:10;}
	.st26{fill:none;stroke:#D824AE;stroke-width:3;stroke-linecap:round;stroke-miterlimit:10;}
	.st27{fill:none;stroke:#FFFFFF;stroke-width:3;stroke-linecap:round;stroke-miterlimit:10;}
	.st28{fill:#CFCDC9;}
	.st29{fill:#8A8989;}
	.st30{fill:url(#Humo_00000147219426196584035030000002491438232682528643_);}
</style>
<g id="fondoNoAnim">
	<g id="NoAnimado">
		<g>
			<g id="Fondo">
				<g>
					<line class="st0" x1="350.45" y1="927.92" x2="1593.98" y2="927.92"/>
					<path class="st1" d="M1552.16,929.15c16.17-136.63,70.76-306.46-21.5-401.48c-92.26-95.03-220.24-90.27-321.08-154.42
						S1015.66,65.61,807.53,62.04S458.76,267.68,388.68,469.47c-38.78,111.65-86.61,236.38,14.22,459.68H1552.16"/>
				</g>
				<path class="st2" d="M440.24,297.88v77.93c0,29.63,24.02,53.66,53.66,53.66h255.54c29.63,0,53.66-24.02,53.66-53.66v-77.93
					c0-29.63-24.02-53.66-53.66-53.66H493.89C464.26,244.23,440.24,268.25,440.24,297.88z"/>
			</g>
			<g id="Muebles">
				<g id="Mesa-Sofa-planta">
					<g id="Mesa">
						<line class="st3" x1="636.42" y1="752.65" x2="636.42" y2="986.34"/>
						<line class="st3" x1="655.49" y1="755.1" x2="720.06" y2="959.9"/>
						<line class="st3" x1="616.74" y1="755.1" x2="552.17" y2="959.9"/>
						<g>
							<path class="st4" d="M527.57,755.1v6.15c0,5.77,48.74,10.46,108.85,10.46s108.86-4.68,108.86-10.46v-6.15"/>
						</g>
						<g>
							<ellipse class="st5" cx="636.42" cy="755.1" rx="108.86" ry="10.45"/>
						</g>
						<g id="Taza">
							<path class="st6" d="M624.76,722.51c0,0-1.67,35.67,26.75,35.67c29.53,0,26.75-35.67,26.75-35.67"/>
							<ellipse class="st7" cx="651.49" cy="722.51" rx="26.75" ry="3.08"/>
							<path class="st8" d="M673.1,727.43c5.18,0,16.83-2.46,16.83,7.38s-16.83,9.84-24.6,9.84"/>
						</g>
					</g>
					<g id="Sofa">
						<ellipse class="st9" cx="1007.27" cy="998.9" rx="266.91" ry="39.06"/>
						<ellipse class="st9" cx="1383.02" cy="966.02" rx="84.24" ry="12.33"/>
						<ellipse class="st9" cx="636.41" cy="966.02" rx="84.24" ry="12.33"/>
						<polygon id="pataSofa" class="st10" points="803.09,876.26 744.05,1016.48 754.35,1016.48 839.99,872.57 964.22,888.56 
							958.07,968.51 964.22,967.75 991.28,882.41 1045.4,897.61 1094.6,1046 1105.96,1046 1065.63,872.57 1137.65,872.57 
							1226.21,991.88 1234.82,991.88 1145.03,835.35 809.24,860.27 						"/>
						<g>
							<path class="st11" d="M1246.16,694.84c-0.82,19.66-2.46,111.93-36.9,150.06c-38.55,42.68-151.29,61.5-190.65,61.5
								c-82.42,0-217.87-8.48-238.62-11.07c-9.84-1.23-102.09-177.12-60.27-210.33c9.03-7.17,24.37-17.99,47.97-19.68
								c51.66-3.69,162.36,17.22,162.36,17.22C926.17,681.84,1250.19,597.66,1246.16,694.84z"/>
							<path class="st12" d="M1234.82,491.27c20.91,0,18.45,15.99,18.45,27.06s-7.38,157.4-7.38,175.89
								c0,19.68-2.46,111.93-36.9,150.06c-38.55,42.68-151.29,61.5-190.65,61.5c-82.42,0-217.87-8.48-238.62-11.07
								c-9.84-1.23-15.31-50.5,0.61-101.48c6.15-19.68,172.2-27.06,172.2-27.06s-25.83-35.67-24.6-67.65
								c1.23-31.98,36.96-165.3,49.82-185.12c12.71-19.58,17.22-22.14,29.52-22.14C1017.5,491.27,1234.82,491.27,1234.82,491.27z"/>
							<path class="st13" d="M933.47,753.26c-13.53-27.06-9.84-57.81,33.21-94.71c33.74-28.92,62.73-44.28,110.7-35.67
								s71.89,29.1,72.23,54.53c0.34,25.42-30.4,121.36-126.35,121.36C954.38,798.77,933.47,753.26,933.47,753.26z"/>
							<path class="st11" d="M1246.12,695.16c0.18,19.68-2.46,111.93-36.9,150.06c-38.55,42.68-151.29,61.5-190.65,61.5
								c-44.72,0,57.58-178.06,87.1-201.43S1245.89,669.62,1246.12,695.16z"/>
							<path class="st14" d="M781.56,796.92c29.52-14.76,52.57-8.66,121.16-0.61c89.17,10.46,139.6,7.99,139.6,7.99"/>
							<path class="st15" d="M1245.89,684.38v8.61c-27.49-3.52-36.9-7.99-57.81-7.99c-40.61,0-75.8,36.19-92.25,84.87
								c-30.75,91.02-57.81,136.53-77.52,136.53c-82.42,0-217.87-8.48-238.62-11.07c-9.84-1.23-103.88-180.2-59.63-209.72
								c0,0,28.91-1.84,42.43,62.11c11.43,54.04,28.29,102.09,28.29,102.09c-3.88-0.7,218.52,15.22,218.94,13.53
								c4.92-19.68,28.29-107.01,81.18-159.9C1136.57,657.79,1245.89,684.38,1245.89,684.38z"/>
							<g>
								<circle class="st11" cx="1052.78" cy="583.52" r="7.38"/>
								<circle class="st11" cx="1137.65" cy="583.52" r="7.38"/>
							</g>
						</g>
					</g>
					<g id="Planta">
						<ellipse class="st16" cx="1382.42" cy="760.64" rx="57.81" ry="12.3"/>
						<linearGradient id="SVGID_1_" gradientUnits="userSpaceOnUse" x1="1383.4929" y1="502.9316" x2="1466.041" y2="645.9092">
							<stop  offset="0.6733" style="stop-color:#277774"/>
							<stop  offset="0.9856" style="stop-color:#096461"/>
						</linearGradient>
						<path class="st17" d="M1402.89,657.41c-22.98-4.65-37.97-35.6-30.31-54.21c10.22-24.84,27.76-29.55,32.87-48.16
							c6.96-25.38-9.18-45.22,10.18-69.92c12.77-16.29,72.57,23.37,56.58,43.05c-9.41,11.58-17.69,24.73-23.36,38.5
							c-7.66,18.61,24.96,33.08,14.75,58.67C1450.63,657.84,1425.87,662.06,1402.89,657.41z"/>
						<path class="st18" d="M1409,719.58c-12.75-7.96-12.85-32.03-3.9-42.59c11.93-14.09,21.86-12.83,29.27-23.94
							c10.1-15.14,3.19-16.69,20.59-28.74c11.47-7.94,17.08-4.23,28.55-12.17c11.47-7.94,11.84,0.77,6.06,7.3s5.88,17.54-5.68,30.6
							c-6.79,7.67-19.49,12.09-26.11,19.91c-8.94,10.56,4.26,22.11-7.85,36.7C1434.56,725.18,1421.75,727.54,1409,719.58z"/>
						<path class="st18" d="M1356.43,693.28c17.84-3.81,27.75-30.5,21.8-45.75c-7.94-20.35-19.82-22.87-23.79-38.12
							c-5.4-20.79-5.24-34.5-11.39-44.34c-5.26-8.41-15.39-3.34-18.45-19.68c-3.69-19.68-20.91-8.61-19.72,4.92
							c0.58,6.61-13.88,17.16-5.95,36.22c4.66,11.19,17.4,21.12,21.8,32.41c5.95,15.25-13.88,22.87-5.95,43.84
							C1324.87,689.41,1338.59,697.09,1356.43,693.28z"/>
						<g>
							<path class="st19" d="M1382.45,787.08c-1.29-0.31,10.23-55.01,19.64-68.26c7.41-10.43,15.1-16.04,23.37-27.06
								c7.38-9.84,23.37-50.43,51.66-63.96"/>
							<path class="st19" d="M1434.08,503.57c-8.19,18.14-3.45,54.8-12.3,91.02c-4.56,18.66-14.76,38.13-23.37,56.58
								c-15.65,33.53-18.67,116.49-19.07,155.49"/>
							<path class="st19" d="M1379.96,786.47c-3.69-62.73-23.37-147.6-62.73-227.55"/>
							<line class="st19" x1="1401.58" y1="646.25" x2="1382.42" y2="601.97"/>
							<line class="st19" x1="1419.71" y1="601.97" x2="1442.69" y2="597.05"/>
							<line class="st19" x1="1428.58" y1="535.69" x2="1454.99" y2="517.1"/>
							<line class="st19" x1="1425.84" y1="571.54" x2="1411.94" y2="554"/>
							<line class="st19" x1="1407.73" y1="631.49" x2="1442.69" y2="617.56"/>
							<line class="st19" x1="1411.94" y1="707.12" x2="1435.31" y2="705.29"/>
							<line class="st19" x1="1427.93" y1="688.07" x2="1415.63" y2="670.85"/>
							<line class="st19" x1="1443.15" y1="660.44" x2="1457.51" y2="663.15"/>
							<line class="st19" x1="1463.28" y1="636.74" x2="1463.6" y2="622.88"/>
							<line class="st19" x1="1360.93" y1="675.27" x2="1330.59" y2="676.68"/>
							<line class="st19" x1="1353.97" y1="651.35" x2="1366.43" y2="643.79"/>
							<line class="st19" x1="1343.49" y1="620.4" x2="1325.84" y2="619.19"/>
							<line class="st19" x1="1329.87" y1="586.29" x2="1340.6" y2="568.76"/>
							<line class="st19" x1="1321.96" y1="568.76" x2="1305.38" y2="570.14"/>
						</g>
						<path class="st20" d="M1404.56,839.97l-17.72,113.16c0,0-1.18,3.69-3.54,3.69s-3.54-3.69-3.54-3.69l-20.08-114.39"/>
						<path class="st21" d="M1382.42,772.94c-30.37,0-55.25-4.98-57.61-11.32l20.38,99.88h78.39l16.53-100.07
							C1438.19,767.85,1413.1,772.94,1382.42,772.94z"/>
						<path class="st20" d="M1328.91,785.85l-8.61,183.08c0,0,0,3.27,2.46,3.27s3.69-3.27,3.69-3.27l52.89-173.27"/>
						<path class="st20" d="M1437.15,785.85l8.61,183.08c0,0,0,3.27-2.46,3.27c-2.46,0-3.69-3.27-3.69-3.27l-52.89-173.27"/>
						<path class="st20" d="M1436.05,783.65c0.72,0.73,1.1,1.47,1.1,2.21c0,5.94-24.23,9.84-54.12,9.84s-54.12-3.9-54.12-9.84
							c0-0.52,0.19-1.04,0.54-1.55"/>
					</g>
				</g>
			</g>
		</g>
	</g>
</g>
<g id="fondoBurbuja">
	<path class="st2" d="M1184.39,244.47v41.47c0,29.68,24.43,53.74,54.56,53.74h39.49c30.13,0,54.56-24.06,54.56-53.74v-41.47
		c0-29.68-24.43-53.74-54.56-53.74h-39.49C1208.82,190.74,1184.39,214.79,1184.39,244.47z"/>
</g>
<g id="_x3C__x2F__x3E_">
	<g>
		<g>
			<path class="st22" d="M1225.36,263.48h-17.81l29.1-18.43v13.26L1225.36,263.48z M1236.64,281.95l-29.1-18.47h17.81l11.29,5.54
				V281.95z"/>
			<path class="st22" d="M1250.6,302.14h-10.67l26.68-78.07h10.67L1250.6,302.14z"/>
			<path class="st22" d="M1277.9,245.05l29.1,18.43h-17.81l-11.29-5.17V245.05z M1289.19,263.48H1307l-29.1,18.47v-12.93
				L1289.19,263.48z"/>
		</g>
	</g>
</g>
<g id="Code_00000046324078178650172470000012745358417619073431_">
	<g id="Code">
		<line class="st23" x1="494.36" y1="272.33" x2="542.94" y2="272.33"/>
		<line class="st23" x1="494.36" y1="378.11" x2="542.94" y2="378.11"/>
		<line class="st23" x1="539.25" y1="306.77" x2="561.39" y2="306.77"/>
		<line class="st23" x1="640.73" y1="343.05" x2="662.87" y2="343.05"/>
		<line class="st24" x1="557.09" y1="272.33" x2="605.67" y2="272.33"/>
		<line class="st24" x1="582.92" y1="360.89" x2="625.35" y2="360.89"/>
		<line class="st24" x1="680.09" y1="396.56" x2="731.75" y2="396.56"/>
		<line class="st25" x1="515.27" y1="288.93" x2="590.91" y2="288.93"/>
		<line class="st25" x1="619.82" y1="397.17" x2="665.94" y2="397.17"/>
		<line class="st26" x1="606.29" y1="288.93" x2="636.42" y2="288.93"/>
		<line class="st26" x1="542.33" y1="360.27" x2="572.46" y2="360.27"/>
		<line class="st27" x1="576.77" y1="307.39" x2="731.13" y2="307.39"/>
		<line class="st27" x1="552.78" y1="324.61" x2="731.13" y2="324.61"/>
		<line class="st27" x1="553.4" y1="343.05" x2="626.58" y2="343.05"/>
		<line class="st27" x1="494.36" y1="396.56" x2="605.06" y2="396.56"/>
		<line class="st27" x1="557.09" y1="378.73" x2="590.91" y2="378.73"/>
	</g>
</g>
<g id="Gear2">
	<g id="gear2">
		<path class="st28" d="M1069.95,194.25c1.08-1.13,2.11-2.33,3.1-3.59c1.25-1.61,2.34-3.3,3.34-5.01l11.04,1.4l1.26-3.49l1.97-5.46
			l1.26-3.48l-9.62-6.12c0.48-3.57,0.54-7.16,0.19-10.71l9.76-5.36l-1.03-3.57l-1.62-5.58l-1.02-3.56l-11.36,0.7
			c-1.68-3.13-3.74-6.08-6.16-8.8l4.74-10.06l-2.93-2.28l-4.58-3.56l-2.93-2.28l-8.76,7.23c-3.28-1.59-6.7-2.72-10.17-3.48
			l-2.08-10.94l-3.71-0.12l-5.8-0.19l-3.71-0.12l-2.85,11.04c-3.53,0.64-6.99,1.64-10.3,3.08l-8.07-7.59l-3.07,2.08l-4.8,3.26
			L999,119.8l4.16,10.55c-1.09,1.13-2.12,2.34-3.11,3.6c-1.25,1.61-2.34,3.3-3.34,5.01l-11.03-1.4l-1.26,3.49l-1.97,5.45l-1.26,3.49
			l9.61,6.11c-0.48,3.57-0.54,7.17-0.19,10.73l-9.75,5.35l1.03,3.56l1.61,5.57l1.03,3.56l11.34-0.7c1.68,3.13,3.74,6.08,6.17,8.81
			l-4.73,10.05l2.93,2.27l4.58,3.57l2.92,2.28l8.76-7.23c3.28,1.59,6.7,2.71,10.17,3.47l2.08,10.93l3.71,0.12l5.81,0.19l3.7,0.13
			l2.85-11.05c3.52-0.64,6.98-1.64,10.29-3.08l8.07,7.58l3.07-2.08l4.81-3.26l3.07-2.08L1069.95,194.25z M1028.3,172.92
			c-5.86-4.55-6.92-13-2.37-18.86c4.55-5.86,13-6.92,18.86-2.37c5.86,4.55,6.92,13,2.37,18.86
			C1042.61,176.41,1034.16,177.47,1028.3,172.92z"/>
		<path class="st29" d="M1051.43,143.15c-10.58-8.22-25.82-6.31-34.04,4.27c-8.22,10.58-6.31,25.82,4.27,34.04
			c10.58,8.22,25.82,6.31,34.04-4.27C1063.92,166.61,1062.01,151.37,1051.43,143.15z M1028.3,172.92c-5.86-4.55-6.92-13-2.37-18.86
			c4.55-5.86,13-6.92,18.86-2.37c5.86,4.55,6.92,13,2.37,18.86C1042.61,176.41,1034.16,177.47,1028.3,172.92z"/>
	</g>
</g>
<g id="Gear1">
	<g id="gear1">
		<path class="st28" d="M975.16,240.75c1.08-1.13,2.11-2.33,3.1-3.59c1.25-1.61,2.34-3.3,3.34-5.01l11.04,1.4l1.26-3.49l1.97-5.46
			l1.26-3.48l-9.62-6.12c0.48-3.57,0.54-7.16,0.19-10.71l9.76-5.36l-1.03-3.57l-1.62-5.58l-1.02-3.56l-11.36,0.7
			c-1.68-3.13-3.74-6.08-6.16-8.8l4.74-10.06l-2.93-2.28l-4.58-3.56l-2.93-2.28l-8.76,7.23c-3.28-1.59-6.7-2.72-10.17-3.48
			l-2.08-10.94l-3.71-0.12l-5.8-0.19l-3.71-0.12l-2.85,11.04c-3.53,0.64-6.99,1.64-10.3,3.08l-8.07-7.59l-3.07,2.08l-4.8,3.26
			l-3.07,2.08l4.16,10.55c-1.09,1.13-2.12,2.34-3.11,3.6c-1.25,1.61-2.34,3.3-3.34,5.01l-11.03-1.4l-1.26,3.49l-1.97,5.45
			l-1.26,3.49l9.61,6.11c-0.48,3.57-0.54,7.17-0.19,10.73l-9.75,5.35l1.03,3.56l1.61,5.57l1.03,3.56l11.34-0.7
			c1.68,3.13,3.74,6.08,6.17,8.81l-4.73,10.05l2.93,2.27l4.58,3.57l2.92,2.28l8.76-7.23c3.28,1.59,6.7,2.71,10.17,3.47l2.08,10.93
			l3.71,0.12l5.81,0.19l3.7,0.13l2.85-11.05c3.52-0.64,6.98-1.64,10.29-3.08l8.07,7.58l3.07-2.08l4.81-3.26l3.07-2.08L975.16,240.75
			z M933.51,219.42c-5.86-4.55-6.92-13-2.37-18.86c4.55-5.86,13-6.92,18.86-2.37c5.86,4.55,6.92,13,2.37,18.86
			C947.81,222.91,939.37,223.97,933.51,219.42z"/>
		<path class="st29" d="M956.64,189.65c-10.58-8.22-25.82-6.31-34.04,4.27c-8.22,10.58-6.31,25.82,4.27,34.04
			c10.58,8.22,25.82,6.31,34.04-4.27C969.13,213.11,967.21,197.87,956.64,189.65z M933.51,219.42c-5.86-4.55-6.92-13-2.37-18.86
			c4.55-5.86,13-6.92,18.86-2.37c5.86,4.55,6.92,13,2.37,18.86C947.81,222.91,939.37,223.97,933.51,219.42z"/>
	</g>
</g>
<g id="Humo_00000016763787692091277080000007039613076623116966_">
	
		<linearGradient id="Humo_00000142136905074102208350000014046505127320756882_" gradientUnits="userSpaceOnUse" x1="661.2714" y1="717.6201" x2="661.2714" y2="620.9331">
		<stop  offset="0" style="stop-color:#B1B1B1"/>
		<stop  offset="0.0149" style="stop-color:#B1B2B2;stop-opacity:0.9867"/>
		<stop  offset="0.9856" style="stop-color:#CED0D6;stop-opacity:0.12"/>
	</linearGradient>
	<path id="Humo" style="fill:url(#Humo_00000142136905074102208350000014046505127320756882_);" d="M651.8,717.59
		c-2.46,1.23-28.29-35.67-6.15-38.13c22.14-2.46,28.36-10.18,18.45-9.84c-36.64,1.24-66.42-15.99-45.51-29.52
		c15.35-9.93,94.11-30.05,92.25-8.61c-2.46,28.29-47.97,2.46-47.97,15.99c0,11.14,31.98,15.99,29.52,27.06
		c-2.75,12.36-45.82,8.31-44.28,22.14C649.34,707.75,654.26,716.36,651.8,717.59z"/>
</g>
</svg>
