<svg xmlns="http://www.w3.org/2000/svg" xmlns:xlink="http://www.w3.org/1999/xlink" viewBox="0 0 1251.28 984"><defs><style>.cls-1,.cls-15,.cls-20,.cls-21,.cls-24,.cls-25,.cls-26,.cls-27,.cls-28,.cls-4,.cls-9{fill:none;stroke-miterlimit:10;}.cls-1,.cls-21,.cls-4{stroke:#000;}.cls-1,.cls-15,.cls-20{stroke-width:2px;}.cls-1{opacity:0.22;}.cls-2{fill:#4045dd;opacity:0.11;}.cls-3{fill:#394363;}.cls-24,.cls-25,.cls-26,.cls-27,.cls-28,.cls-4{stroke-linecap:round;}.cls-4{stroke-width:5px;}.cls-5{fill:#754c24;}.cls-6{fill:#a67c52;}.cls-7{fill:#a3404a;}.cls-8{fill:#42210b;}.cls-9{stroke:#a3404a;stroke-width:4px;}.cls-10,.cls-12{fill:#44555f;}.cls-10{opacity:0.17;}.cls-11{fill:#322100;}.cls-13{fill:#617689;}.cls-14{fill:#f84763;}.cls-15{stroke:#44555f;}.cls-16{fill:#728c99;}.cls-17{fill:#633b00;}.cls-18{fill:url(#Degradado_sin_nombre_8);}.cls-19{fill:#277774;}.cls-20{stroke:#545b43;}.cls-22{fill:#ba6000;}.cls-23{fill:#fcfcfc;}.cls-24{stroke:#d33d1f;}.cls-24,.cls-25,.cls-26,.cls-27,.cls-28{stroke-width:3px;}.cls-25{stroke:#d8b507;}.cls-26{stroke:#1d54ea;}.cls-27{stroke:#d824ae;}.cls-28{stroke:#fff;}.cls-29{fill:#cfcdc9;}.cls-30{fill:#8a8989;}.cls-31{fill:url(#Degradado_sin_nombre_34);}</style><linearGradient id="Degradado_sin_nombre_8" x1="1383.49" y1="502.93" x2="1466.04" y2="645.91" gradientUnits="userSpaceOnUse"><stop offset="0.67" stop-color="#277774"/><stop offset="0.99" stop-color="#096461"/></linearGradient><linearGradient id="Degradado_sin_nombre_34" x1="661.27" y1="717.62" x2="661.27" y2="620.93" gradientUnits="userSpaceOnUse"><stop offset="0" stop-color="#b1b1b1"/><stop offset="0.14" stop-color="#b5b6b7" stop-opacity="0.86"/><stop offset="0.72" stop-color="#c7c9cd" stop-opacity="0.33"/><stop offset="0.99" stop-color="#ced0d6" stop-opacity="0.12"/></linearGradient></defs><g id="fondoNoAnim"><g id="NoAnimado"><g id="Fondo"><line class="cls-1" x1="7.75" y1="865.92" x2="1251.28" y2="865.92"/><path class="cls-2" d="M1552.16,929.15c16.17-136.63,70.75-306.46-21.5-401.48s-220.25-90.28-321.08-154.42S1015.66,65.61,807.53,62,458.76,267.68,388.68,469.47c-38.79,111.65-86.62,236.37,14.22,459.68H1552.16" transform="translate(-342.7 -62)"/><rect class="cls-3" x="97.54" y="182.23" width="362.85" height="185.24" rx="53.66"/></g><g id="Muebles"><g id="Mesa-Sofa-planta"><g id="Mesa"><line class="cls-4" x1="293.72" y1="690.64" x2="293.72" y2="924.35"/><line class="cls-4" x1="312.79" y1="693.1" x2="377.36" y2="897.9"/><line class="cls-4" x1="274.04" y1="693.1" x2="209.47" y2="897.9"/><path class="cls-5" d="M527.57,755.11v6.15c0,5.77,48.73,10.45,108.85,10.45S745.28,767,745.28,761.26v-6.15" transform="translate(-342.7 -62)"/><ellipse class="cls-6" cx="293.72" cy="693.11" rx="108.86" ry="10.45"/><g id="Taza"><path class="cls-7" d="M624.76,722.51s-1.67,35.67,26.74,35.67c29.54,0,26.75-35.67,26.75-35.67" transform="translate(-342.7 -62)"/><ellipse class="cls-8" cx="308.79" cy="660.51" rx="26.75" ry="3.08"/><path class="cls-9" d="M673.1,727.43c5.18,0,16.83-2.46,16.83,7.38s-16.83,9.84-24.6,9.84" transform="translate(-342.7 -62)"/></g></g><g id="Sofa"><ellipse class="cls-10" cx="664.57" cy="936.9" rx="266.91" ry="39.06"/><ellipse class="cls-10" cx="1040.32" cy="904.02" rx="84.24" ry="12.33"/><ellipse class="cls-10" cx="293.71" cy="904.02" rx="84.24" ry="12.33"/><polygon id="pataSofa" class="cls-11" points="460.38 814.26 401.35 954.48 411.65 954.48 497.29 810.57 621.51 826.56 615.37 906.51 621.51 905.75 648.58 820.41 702.7 835.61 751.89 984 763.26 984 722.92 810.57 794.95 810.57 883.5 929.88 892.12 929.88 802.33 773.35 466.54 798.27 460.38 814.26"/><path class="cls-12" d="M1246.16,694.84c-.82,19.66-2.46,111.93-36.9,150.06-38.55,42.67-151.29,61.5-190.65,61.5-82.42,0-217.88-8.48-238.62-11.07C770.15,894.1,677.9,718.21,719.72,685c9-7.18,24.36-18,48-19.68,51.66-3.69,162.36,17.22,162.36,17.22C926.17,681.84,1250.19,597.67,1246.16,694.84Z" transform="translate(-342.7 -62)"/><path class="cls-13" d="M1234.82,491.27c20.91,0,18.45,16,18.45,27.06s-7.38,157.4-7.38,175.89c0,19.68-2.46,111.93-36.9,150.06-38.55,42.68-151.29,61.5-190.65,61.5-82.42,0-217.87-8.48-238.62-11.07-9.84-1.23-15.32-50.5.61-101.47,6.15-19.68,172.2-27.06,172.2-27.06s-25.83-35.67-24.6-67.65,37-165.31,49.82-185.12c12.7-19.58,17.22-22.14,29.52-22.14Z" transform="translate(-342.7 -62)"/><path class="cls-14" d="M933.47,753.26c-13.53-27.06-9.84-57.81,33.21-94.71,33.73-28.92,62.73-44.28,110.7-35.67s71.88,29.1,72.23,54.53-30.4,121.36-126.35,121.36C954.38,798.77,933.47,753.26,933.47,753.26Z" transform="translate(-342.7 -62)"/><path class="cls-12" d="M1246.12,695.16c.18,19.68-2.46,111.93-36.9,150.06-38.54,42.68-151.29,61.5-190.65,61.5-44.72,0,57.58-178.06,87.1-201.43S1245.89,669.62,1246.12,695.16Z" transform="translate(-342.7 -62)"/><path class="cls-15" d="M781.56,796.93c29.52-14.76,52.57-8.66,121.16-.62,89.17,10.46,139.6,8,139.6,8" transform="translate(-342.7 -62)"/><path class="cls-16" d="M1245.89,684.38V693c-27.5-3.52-36.9-8-57.81-8-40.61,0-75.81,36.19-92.25,84.87-30.75,91-57.81,136.53-77.52,136.53-82.42,0-217.87-8.48-238.62-11.07-9.84-1.23-103.88-180.2-59.63-209.72,0,0,28.91-1.84,42.44,62.12a929.1,929.1,0,0,0,28.29,102.09c-3.88-.7,218.52,15.21,218.94,13.53,4.92-19.68,28.29-107,81.18-159.9C1136.57,657.79,1245.89,684.38,1245.89,684.38Z" transform="translate(-342.7 -62)"/><circle class="cls-12" cx="710.08" cy="521.52" r="7.38"/><circle class="cls-12" cx="794.95" cy="521.52" r="7.38"/></g><g id="Planta"><ellipse class="cls-17" cx="1039.72" cy="698.64" rx="57.81" ry="12.3"/><path class="cls-18" d="M1402.89,657.41c-23-4.66-38-35.6-30.31-54.21,10.22-24.84,27.76-29.55,32.87-48.16,7-25.38-9.18-45.22,10.18-69.92,12.77-16.29,72.57,23.37,56.58,43a156.8,156.8,0,0,0-23.36,38.5c-7.66,18.62,25,33.08,14.75,58.67C1450.63,657.84,1425.87,662.06,1402.89,657.41Z" transform="translate(-342.7 -62)"/><path class="cls-19" d="M1409,719.58c-12.75-8-12.85-32-3.9-42.59,11.93-14.09,21.86-12.83,29.27-23.93,10.09-15.14,3.19-16.7,20.59-28.74,11.47-7.94,17.08-4.24,28.55-12.18s11.84.78,6.06,7.31,5.88,17.54-5.68,30.6c-6.79,7.67-19.49,12.09-26.11,19.91-8.94,10.55,4.26,22.11-7.85,36.7C1434.56,725.18,1421.75,727.54,1409,719.58Z" transform="translate(-342.7 -62)"/><path class="cls-19" d="M1356.43,693.28c17.84-3.81,27.75-30.5,21.8-45.75-7.94-20.35-19.82-22.87-23.79-38.12-5.4-20.79-5.23-34.5-11.38-44.34-5.26-8.41-15.39-3.34-18.45-19.68-3.69-19.68-20.91-8.61-19.72,4.92.58,6.61-13.88,17.16-6,36.22,4.66,11.2,17.41,21.12,21.81,32.41,5.94,15.25-13.88,22.87-6,43.84C1324.87,689.41,1338.59,697.09,1356.43,693.28Z" transform="translate(-342.7 -62)"/><path class="cls-20" d="M1382.45,787.08c-1.28-.32,10.23-55,19.65-68.26,7.41-10.43,15.1-16,23.37-27.06,7.38-9.84,23.37-50.43,51.66-64" transform="translate(-342.7 -62)"/><path class="cls-20" d="M1434.08,503.57c-8.2,18.14-3.45,54.8-12.3,91-4.56,18.66-14.76,38.13-23.37,56.58-15.65,33.53-18.67,116.49-19.07,155.49" transform="translate(-342.7 -62)"/><path class="cls-20" d="M1380,786.47c-3.69-62.73-23.37-147.6-62.73-227.55" transform="translate(-342.7 -62)"/><line class="cls-20" x1="1058.88" y1="584.25" x2="1039.72" y2="539.97"/><line class="cls-20" x1="1077" y1="539.97" x2="1099.99" y2="535.05"/><line class="cls-20" x1="1085.88" y1="473.69" x2="1112.29" y2="455.1"/><line class="cls-20" x1="1083.14" y1="509.54" x2="1069.24" y2="492"/><line class="cls-20" x1="1065.02" y1="569.49" x2="1099.99" y2="555.56"/><line class="cls-20" x1="1069.24" y1="645.12" x2="1092.61" y2="643.29"/><line class="cls-20" x1="1085.23" y1="626.07" x2="1072.93" y2="608.85"/><line class="cls-20" x1="1100.44" y1="598.44" x2="1114.81" y2="601.15"/><line class="cls-20" x1="1120.57" y1="574.74" x2="1120.9" y2="560.88"/><line class="cls-20" x1="1018.23" y1="613.27" x2="987.88" y2="614.68"/><line class="cls-20" x1="1011.27" y1="589.35" x2="1023.73" y2="581.79"/><line class="cls-20" x1="1000.79" y1="558.4" x2="983.14" y2="557.19"/><line class="cls-20" x1="987.17" y1="524.29" x2="997.9" y2="506.76"/><line class="cls-20" x1="979.26" y1="506.76" x2="962.68" y2="508.14"/><path class="cls-21" d="M1404.56,840l-17.72,113.16s-1.18,3.69-3.55,3.69-3.54-3.69-3.54-3.69l-20.09-114.39" transform="translate(-342.7 -62)"/><path class="cls-22" d="M1382.42,772.94c-30.37,0-55.25-5-57.61-11.32l20.37,99.88h78.39l16.53-100.07C1438.19,767.85,1413.1,772.94,1382.42,772.94Z" transform="translate(-342.7 -62)"/><path class="cls-21" d="M1328.91,785.86l-8.61,183.07s0,3.27,2.46,3.27,3.69-3.27,3.69-3.27l52.89-173.27" transform="translate(-342.7 -62)"/><path class="cls-21" d="M1437.15,785.86l8.61,183.07s0,3.27-2.46,3.27-3.69-3.27-3.69-3.27l-52.89-173.27" transform="translate(-342.7 -62)"/><path class="cls-21" d="M1436.05,783.65a3.19,3.19,0,0,1,1.1,2.21c0,5.94-24.23,9.84-54.12,9.84s-54.12-3.9-54.12-9.84a2.69,2.69,0,0,1,.55-1.55" transform="translate(-342.7 -62)"/></g></g></g></g></g><g id="fondoBurbuja"><path class="cls-3" d="M1184.39,244.47v41.47c0,29.68,24.43,53.74,54.56,53.74h39.49c30.13,0,54.56-24.06,54.56-53.74V244.47c0-29.68-24.43-53.73-54.56-53.73H1239C1208.82,190.74,1184.39,214.79,1184.39,244.47Z" transform="translate(-342.7 -62)"/></g><g id="_" data-name="&lt;/&gt;"><path class="cls-23" d="M1225.36,263.48h-17.82l29.1-18.43V258.3ZM1236.64,282l-29.1-18.47h17.82l11.28,5.54Z" transform="translate(-342.7 -62)"/><path class="cls-23" d="M1250.6,302.14h-10.67l26.68-78.07h10.67Z" transform="translate(-342.7 -62)"/><path class="cls-23" d="M1277.9,245.05l29.1,18.43h-17.81l-11.29-5.18Zm11.29,18.43H1307L1277.9,282V269Z" transform="translate(-342.7 -62)"/></g><g id="Code"><g id="Code-2" data-name="Code"><line class="cls-24" x1="151.66" y1="210.33" x2="200.24" y2="210.33"/><line class="cls-24" x1="151.66" y1="316.11" x2="200.24" y2="316.11"/><line class="cls-24" x1="196.55" y1="244.77" x2="218.69" y2="244.77"/><line class="cls-24" x1="298.03" y1="281.06" x2="320.17" y2="281.06"/><line class="cls-25" x1="214.39" y1="210.33" x2="262.97" y2="210.33"/><line class="cls-25" x1="240.22" y1="298.89" x2="282.65" y2="298.89"/><line class="cls-25" x1="337.39" y1="334.56" x2="389.05" y2="334.56"/><line class="cls-26" x1="172.57" y1="226.94" x2="248.21" y2="226.94"/><line class="cls-26" x1="277.12" y1="335.18" x2="323.24" y2="335.18"/><line class="cls-27" x1="263.59" y1="226.94" x2="293.72" y2="226.94"/><line class="cls-27" x1="199.63" y1="298.28" x2="229.76" y2="298.28"/><line class="cls-28" x1="234.07" y1="245.39" x2="388.43" y2="245.39"/><line class="cls-28" x1="210.08" y1="262.61" x2="388.43" y2="262.61"/><line class="cls-28" x1="210.7" y1="281.06" x2="283.88" y2="281.06"/><line class="cls-28" x1="151.66" y1="334.56" x2="262.36" y2="334.56"/><line class="cls-28" x1="214.39" y1="316.73" x2="248.21" y2="316.73"/></g></g><g id="Gear2"><g id="gear2-2" data-name="gear2"><path class="cls-29" d="M1070,194.25a46.71,46.71,0,0,0,3.1-3.59,47.41,47.41,0,0,0,3.34-5l11,1.4,1.26-3.49,2-5.46,1.26-3.48-9.62-6.12a46.34,46.34,0,0,0,.19-10.72l9.76-5.36-1-3.56-1.62-5.59-1-3.55-11.36.7a45.43,45.43,0,0,0-6.16-8.8l4.74-10.07-2.93-2.27-4.57-3.56-2.93-2.27-8.77,7.23a45.46,45.46,0,0,0-10.17-3.48l-2.07-10.94-3.71-.12-5.8-.18-3.7-.12-2.85,11A46.84,46.84,0,0,0,1018,120l-8.06-7.58-3.07,2.08-4.8,3.25L999,119.8l4.16,10.55a45.15,45.15,0,0,0-3.11,3.6,46.4,46.4,0,0,0-3.34,5l-11-1.4-1.26,3.49-2,5.45L981.18,150l9.61,6.11a46.5,46.5,0,0,0-.19,10.74l-9.75,5.35,1,3.56,1.61,5.57,1,3.57,11.34-.7A45.48,45.48,0,0,0,1002,193l-4.73,10,2.93,2.28,4.58,3.56,2.92,2.28,8.76-7.23a45.64,45.64,0,0,0,10.17,3.48l2.08,10.93,3.71.12,5.8.19,3.7.12,2.86-11.05a45.63,45.63,0,0,0,10.29-3.08l8.06,7.59,3.08-2.09,4.81-3.25,3.06-2.08Zm-41.65-21.33a13.44,13.44,0,1,1,18.86-2.37A13.44,13.44,0,0,1,1028.3,172.92Z" transform="translate(-342.7 -62)"/><path class="cls-30" d="M1051.43,143.15a24.26,24.26,0,1,0,4.27,34A24.26,24.26,0,0,0,1051.43,143.15Zm-23.13,29.77a13.44,13.44,0,1,1,18.86-2.37A13.44,13.44,0,0,1,1028.3,172.92Z" transform="translate(-342.7 -62)"/></g></g><g id="Gear1"><g id="gear1-2" data-name="gear1"><path class="cls-29" d="M975.16,240.75a43.87,43.87,0,0,0,6.43-8.6l11,1.41,1.27-3.49,2-5.47,1.27-3.48L987.52,215a46.26,46.26,0,0,0,.19-10.71l9.75-5.36-1-3.57-1.62-5.58-1-3.56-11.36.7a45.87,45.87,0,0,0-6.16-8.8L981,168.06l-2.93-2.28-4.58-3.56L970.58,160l-8.76,7.23a46.12,46.12,0,0,0-10.17-3.47l-2.08-10.94-3.7-.12-5.8-.19-3.71-.12-2.85,11a46.1,46.1,0,0,0-10.3,3.09l-8.07-7.59L912.07,161l-4.8,3.26-3.07,2.08,4.17,10.55a44.88,44.88,0,0,0-3.11,3.6,45.91,45.91,0,0,0-3.34,5l-11-1.4-1.26,3.49-2,5.45-1.26,3.49,9.6,6.12a45.87,45.87,0,0,0-.18,10.73l-9.76,5.35,1,3.56,1.61,5.58,1,3.56,11.34-.7a45.86,45.86,0,0,0,6.17,8.81l-4.74,10.05,2.93,2.27,4.59,3.56,2.92,2.28,8.76-7.22a45.94,45.94,0,0,0,10.17,3.47l2.07,10.93,3.71.12,5.81.19,3.7.13,2.85-11a46.36,46.36,0,0,0,10.29-3.08l8.07,7.58,3.07-2.08,4.81-3.26,3.07-2.08Zm-41.65-21.33a13.44,13.44,0,1,1,18.86-2.37A13.45,13.45,0,0,1,933.51,219.42Z" transform="translate(-342.7 -62)"/><path class="cls-30" d="M956.64,189.65a24.26,24.26,0,1,0,4.27,34A24.26,24.26,0,0,0,956.64,189.65Zm-23.13,29.77a13.44,13.44,0,1,1,18.86-2.37A13.45,13.45,0,0,1,933.51,219.42Z" transform="translate(-342.7 -62)"/></g></g><g id="Humo"><path id="Humo-2" data-name="Humo" class="cls-31" d="M651.8,717.59c-2.46,1.23-28.29-35.67-6.15-38.13s28.36-10.18,18.45-9.84c-36.64,1.24-66.42-16-45.51-29.52,15.35-9.93,94.11-30.05,92.25-8.61-2.46,28.29-48,2.46-48,16,0,11.14,32,16,29.52,27.06-2.75,12.36-45.82,8.31-44.28,22.14C649.34,707.75,654.26,716.36,651.8,717.59Z" transform="translate(-342.7 -62)"/></g></svg>